<svg xmlns="http://www.w3.org/2000/svg" width="12" height="13" viewBox="0 0 12 13">
    <path fill="#B4B4B4" fill-rule="nonzero" d="M9.766 7.44H3.482a.6.6 0 0 1-.433-.192.663.663 0 0 1-.178-.458c0-.359.274-.65.61-.65h6.461L8.8 4.952a.629.629 0 0 1-.174-.437c0-.164.062-.321.174-.436a.579.579 0 0 1 .84 0l2.1 2.183a.629.629 0 0 1 .175.437.629.629 0 0 1-.174.436L9.639 9.318a.579.579 0 0 1-.84 0 .629.629 0 0 1-.175-.436c0-.165.063-.322.175-.437l.967-1.005zM1.27 11.73h5.033c.156 0 .307.064.418.18a.635.635 0 0 1 0 .875.576.576 0 0 1-.418.18H.678a.605.605 0 0 1-.592-.618V1.232C.088.891.353.615.678.615h5.625c.157 0 .307.064.418.18a.635.635 0 0 1 0 .875.576.576 0 0 1-.418.18H1.27v9.88z"/>
</svg>
