<svg xmlns="http://www.w3.org/2000/svg" width="132" height="20" viewBox="0 0 132 20">
    <g fill="#FFF" fill-rule="evenodd">
        <path d="M44.904 14.98c.508 0 .936-.057 1.286-.172a2.37 2.37 0 0 0 .858-.472c.218-.193.383-.435.481-.705.1-.271.151-.562.151-.873 0-.636-.224-1.136-.67-1.5-.447-.364-1.152-.546-2.115-.546h-2.786v4.269h2.795zM42.11 4.968V9.17h2.256c.964 0 1.682-.18 2.158-.542.476-.36.714-.88.714-1.56 0-.74-.224-1.276-.67-1.606-.447-.33-1.146-.495-2.097-.495h-2.36zm2.361-1.71c.886 0 1.645.083 2.275.248.63.165 1.146.4 1.552.705.404.305.701.677.89 1.117.19.438.285.932.285 1.48 0 .318-.05.625-.15.92-.099.296-.253.573-.462.831-.222.271-.488.506-.786.697a4.566 4.566 0 0 1-1.118.513c1.967.405 2.95 1.417 2.95 3.037 0 .572-.111 1.097-.333 1.573a3.487 3.487 0 0 1-.964 1.234c-.42.345-.94.615-1.556.807-.617.193-1.32.29-2.11.29h-5.089V3.257h4.616zm12.008 9.285c-.739.026-1.362.083-1.87.173-.507.091-.919.207-1.233.347-.315.14-.542.306-.68.5a1.06 1.06 0 0 0-.206.634c0 .225.036.416.11.575.075.158.177.29.309.392.131.102.285.177.462.224.177.047.372.07.583.07.54 0 1.004-.098 1.393-.294a4.345 4.345 0 0 0 1.132-.855v-1.766zm-5.493-4.035c1.111-1.002 2.435-1.504 3.97-1.504.565 0 1.068.089 1.509.266.44.177.809.429 1.108.753.298.323.527.708.684 1.153.158.446.236.939.236 1.48v6.054h-.925c-.199 0-.35-.03-.453-.089-.103-.06-.19-.178-.26-.36l-.202-.775a8.99 8.99 0 0 1-.742.584 4.746 4.746 0 0 1-.757.435c-.26.118-.54.206-.839.266-.325.061-.656.09-.987.088a3.78 3.78 0 0 1-1.114-.158 2.463 2.463 0 0 1-.89-.482 2.279 2.279 0 0 1-.593-.798c-.145-.318-.217-.692-.217-1.12 0-.368.101-.726.303-1.075.203-.35.537-.662 1.002-.939.466-.277 1.08-.506 1.841-.687.762-.18 1.701-.284 2.819-.307v-.637c0-.684-.15-1.195-.452-1.531-.303-.336-.746-.505-1.33-.505-.4 0-.733.05-1.003.146-.27.096-.504.2-.704.312a14.49 14.49 0 0 0-.53.313.912.912 0 0 1-.491.145.603.603 0 0 1-.361-.107.9.9 0 0 1-.246-.266l-.376-.654v-.001zm11.189-.065c.211-.212.431-.404.66-.574.227-.172.47-.32.727-.444.261-.126.536-.223.819-.29a4.1 4.1 0 0 1 .945-.102c.54 0 1.013.086 1.422.261.407.175.75.42 1.03.738.28.317.49.7.632 1.144.14.446.211.936.211 1.471v6.063h-2.062v-6.063c0-.64-.153-1.14-.458-1.494-.305-.355-.77-.533-1.392-.533-.463 0-.891.103-1.287.309-.415.22-.79.504-1.113.84v6.941h-2.072V7.181h1.254c.281 0 .461.127.54.383l.144.878zm10.272-5.558v8.015h.444c.14 0 .256-.019.346-.057a.772.772 0 0 0 .28-.234l2.756-3.053c.097-.125.202-.219.317-.281a.945.945 0 0 1 .444-.093h1.88l-3.316 3.624a2.478 2.478 0 0 1-.635.58c.128.087.24.184.336.293.097.11.19.233.28.37l3.537 4.661h-1.85c-.167 0-.31-.026-.43-.079a.737.737 0 0 1-.313-.295l-2.842-3.737c-.097-.143-.193-.234-.29-.275-.096-.04-.24-.06-.433-.06h-.51v4.445h-2.073V2.885h2.072v-.001zm16.142 7.23c.5 0 .942-.062 1.325-.187.353-.108.678-.288.954-.528.254-.227.444-.502.573-.826a2.91 2.91 0 0 0 .193-1.085c0-.392-.063-.743-.188-1.054a2.057 2.057 0 0 0-.563-.795 2.55 2.55 0 0 0-.95-.5 4.703 4.703 0 0 0-1.345-.172h-2.062v5.147H88.588zm0-6.856c.905 0 1.69.102 2.356.307.664.207 1.214.494 1.647.865.434.37.757.815.97 1.335.211.52.317 1.095.317 1.723 0 .643-.112 1.23-.337 1.762-.22.526-.564.996-1.003 1.373-.442.383-.993.682-1.652.897-.658.215-1.424.322-2.299.322h-2.062v4.867H84.27V3.258h4.317zm12.354 7.613c0-.337-.05-.65-.149-.94a2.183 2.183 0 0 0-.438-.756 1.998 1.998 0 0 0-.718-.504 2.51 2.51 0 0 0-.988-.183c-.752 0-1.343.21-1.773.627-.431.417-.704 1.002-.82 1.756h4.886zm-4.944 1.233c.026.541.113 1.01.26 1.405.148.396.346.724.593.986.248.262.543.456.887.583.344.128.728.193 1.151.193.405 0 .755-.046 1.05-.136.297-.09.554-.19.772-.299.19-.093.376-.193.558-.3a.851.851 0 0 1 .425-.134c.166 0 .295.062.385.186l.587.739a3.707 3.707 0 0 1-.827.71c-.31.192-.636.35-.984.471a5.692 5.692 0 0 1-1.07.262 7.502 7.502 0 0 1-1.069.08 5.289 5.289 0 0 1-1.893-.332 4.23 4.23 0 0 1-1.513-.977c-.429-.43-.762-.962-1.002-1.597-.242-.636-.362-1.367-.362-2.196 0-.66.108-1.276.323-1.849.203-.553.517-1.06.925-1.494.41-.43.91-.772 1.464-1.004.575-.246 1.226-.37 1.952-.37.604 0 1.163.095 1.677.285.514.19.957.47 1.33.836.373.368.663.817.873 1.35.207.533.312 1.139.312 1.817 0 .311-.036.52-.106.626-.07.106-.198.159-.386.159h-6.312zm10.128-9.22v8.015h.445c.14 0 .256-.019.346-.057a.767.767 0 0 0 .28-.234l2.756-3.053c.096-.125.202-.219.317-.281a.94.94 0 0 1 .444-.093h1.88l-3.316 3.624c-.176.228-.391.424-.637.58.129.087.242.184.338.293.096.11.19.233.28.37l3.536 4.661h-1.85c-.166 0-.31-.026-.428-.079a.732.732 0 0 1-.313-.295l-2.844-3.737c-.097-.143-.193-.234-.289-.275a1.191 1.191 0 0 0-.434-.06h-.51v4.445h-2.072V2.885h2.071v-.001z"/>
        <path d="M118.693 12.542c-.738.026-1.363.083-1.87.173-.507.091-.918.207-1.232.347-.316.14-.542.306-.68.5a1.066 1.066 0 0 0-.207.634c0 .225.036.416.11.575.074.158.177.29.308.392.132.102.286.177.463.224.177.047.371.07.583.07.54 0 1.004-.098 1.392-.294a4.345 4.345 0 0 0 1.133-.855v-1.766zM113.2 8.507c1.11-1.002 2.435-1.504 3.971-1.504.565 0 1.067.089 1.507.266.424.167.803.424 1.109.753.299.323.527.708.684 1.153.158.446.236.939.236 1.48v6.054h-.925c-.198 0-.35-.03-.452-.089-.103-.06-.19-.178-.261-.36l-.203-.775c-.25.218-.497.413-.741.584a4.726 4.726 0 0 1-.757.435c-.26.118-.54.206-.838.266a5.13 5.13 0 0 1-.988.088c-.399 0-.77-.053-1.114-.158a2.466 2.466 0 0 1-.89-.482 2.279 2.279 0 0 1-.593-.798c-.145-.318-.217-.692-.217-1.12 0-.368.1-.726.303-1.075.202-.35.536-.662 1.002-.939.466-.277 1.08-.506 1.84-.687.762-.18 1.703-.284 2.82-.307v-.637c0-.684-.151-1.195-.453-1.531-.302-.336-.745-.505-1.33-.505-.398 0-.732.05-1.002.146-.27.096-.505.2-.704.312a14.49 14.49 0 0 0-.53.313.911.911 0 0 1-.49.145.605.605 0 0 1-.363-.107.893.893 0 0 1-.246-.266l-.375-.654v-.001zm13.502 6.773c.886 0 1.546-.288 1.98-.865.433-.575.65-1.4.65-2.47 0-1.071-.217-1.898-.65-2.48-.434-.583-1.094-.873-1.981-.873-.9 0-1.568.29-2.004.873-.437.582-.655 1.409-.655 2.48s.218 1.895.655 2.47c.436.577 1.104.865 2.004.865m0-8.248c.726 0 1.383.115 1.97.346a4.23 4.23 0 0 1 1.504.98c.415.424.734.937.96 1.541.224.604.337 1.283.337 2.036 0 .754-.113 1.433-.338 2.037a4.379 4.379 0 0 1-.959 1.546 4.21 4.21 0 0 1-1.503.985c-.587.23-1.245.346-1.971.346-.732 0-1.392-.115-1.98-.346a4.258 4.258 0 0 1-1.509-.985 4.34 4.34 0 0 1-.963-1.546c-.225-.604-.338-1.283-.338-2.037 0-.753.113-1.432.338-2.036.206-.574.534-1.099.963-1.541a4.281 4.281 0 0 1 1.509-.981c.588-.23 1.248-.346 1.98-.346M24.969 13.677s3.573 1.318 3.14 6.264c0 0 .043.002.044 0 .15-.318 2.237-4.635-1.068-6.628 0 0 1.334-3.178-1.16-6.125-1.27-1.499-3.596-2.93-7.854-2.331 0 0-5.27-8.52-13.429-2.928 0 0 .617 1.597-.66 3.276l.032.017c1.238-.703 7.136-6.02 13.531.331 0 0 10.103-.903 7.424 8.123"/>
        <path d="M12.237 14.218s2.596-3.05 5.535-.266c0 0 1.985-2.336 5.08-.995 1.405.608 3.444 2.6 1.198 6.823a.322.322 0 0 1-.05 0s.917-3.58-1.767-5.203c-1.082-.655-3.065-.52-5.05 1.59 0 0-.942-1.686-2.529-1.216 0 0 .199 2.476-1.386 4.987-.002.004-.048-.003-.048 0 0 0 .926-3.862-.983-5.72m-9.718.83s3.318-2.606 6.076-1.412c1.759.762 2.22 2.864 1.881 6.14 0 0 .047.004.048 0 .253-.575 3.512-6.44-1.455-8.217-.938-.337-2.252-.443-4.62.4L2.25 5.844S5.738 1.268.004.215L0 .256c.56.302 3.974 2.4.15 4.908l2.369 9.884zM33.555 0v19.962h.712L34.282.008 33.555 0z"/>
    </g>
</svg>
