<svg xmlns="http://www.w3.org/2000/svg" width="37" height="26" viewBox="0 0 37 26">
    <g fill="#FFF" fill-rule="evenodd">
        <path d="M31.472 17.78s4.503 1.713 3.957 8.143c0 0 .055.003.056 0 .19-.413 2.82-6.025-1.346-8.616 0 0 1.681-4.132-1.463-7.963-1.6-1.948-4.531-3.808-9.898-3.03 0 0-6.644-11.076-16.927-3.806 0 0 .778 2.076-.832 4.258l.04.023c1.561-.914 8.995-7.826 17.056.43 0 0 12.734-1.174 9.357 10.56"/>
        <path d="M15.424 18.484s3.272-3.965 6.976-.347c0 0 2.503-3.036 6.404-1.293 1.77.791 4.34 3.38 1.51 8.87a.393.393 0 0 1-.063 0s1.155-4.654-2.227-6.764c-1.364-.852-3.864-.676-6.366 2.068 0 0-1.187-2.193-3.187-1.582 0 0 .25 3.219-1.748 6.483-.002.005-.06-.003-.06 0 0 0 1.167-5.02-1.239-7.435M3.175 19.562s4.182-3.388 7.658-1.835c2.217.991 2.798 3.723 2.372 7.981 0 0 .058.006.06 0 .319-.747 4.426-8.372-1.834-10.681-1.182-.438-2.838-.576-5.824.52l-2.77-7.95S7.232 1.649.005.28L0 .333c.706.393 5.009 3.12.188 6.38l2.987 12.849z"/>
    </g>
</svg>
